<svg width="28" height="29" viewBox="0 0 28 29" fill="none" xmlns="http://www.w3.org/2000/svg">
<g id="Icon/bag">
<path id="Union" fill-rule="evenodd" clip-rule="evenodd" d="M11.3087 7.5C11.3087 7.32778 11.3959 6.96201 11.7498 6.63432C12.0916 6.31785 12.7531 5.97436 14.0011 5.97436C15.249 5.97436 15.9105 6.31785 16.2523 6.63432C16.6062 6.96201 16.6934 7.32778 16.6934 7.5V9.32019H11.3087V7.5ZM9.69336 7.5C9.69336 6.89445 9.9562 6.09356 10.6523 5.44902C11.3605 4.79327 12.449 4.35898 14.0011 4.35898C15.5531 4.35898 16.6416 4.79327 17.3498 5.44902C18.0459 6.09356 18.3087 6.89445 18.3087 7.5V9.32019H21.0831C21.5292 9.32019 21.8908 9.68181 21.8908 10.1279V21.161C21.8908 21.7954 21.6367 22.4024 21.1865 22.8489C20.7365 23.2953 20.1277 23.5448 19.4941 23.5448H8.37128C7.73774 23.5448 7.12885 23.2953 6.67889 22.8489C6.22872 22.4024 5.97461 21.7954 5.97461 21.161V10.1279C5.97461 9.68181 6.33623 9.32019 6.7823 9.32019H9.69336V7.5M9.69336 13.3333V10.9356H7.58999V21.161C7.58999 21.3627 7.6707 21.5574 7.81651 21.7021C7.96254 21.8469 8.16197 21.9295 8.37128 21.9295H19.4941C19.7034 21.9295 19.9029 21.8469 20.0489 21.7021C20.1947 21.5574 20.2754 21.3627 20.2754 21.161V10.9356H18.3087V13.3333H16.6934V10.9356H11.3087V13.3333H9.69336Z" fill="white"/>
</g>
</svg>
