<svg width="18" height="18" viewBox="0 0 18 18" fill="none" xmlns="http://www.w3.org/2000/svg">
<g id="Icon" clip-path="url(#clip0_21_11617)">
<path id="Vector" d="M9.47158 2.24146C8.96147 2.24146 8.48821 2.36898 8.05178 2.62404C7.61536 2.87909 7.26962 3.22483 7.01456 3.66126C6.75951 4.09768 6.63198 4.57095 6.63198 5.08105H5.18668C5.18668 4.31023 5.37655 3.59891 5.7563 2.94711C6.13604 2.2953 6.65182 1.77953 7.30362 1.39978C7.95543 1.02003 8.66674 0.83016 9.43757 0.83016C10.2084 0.83016 10.9197 1.02003 11.5715 1.39978C12.2233 1.77953 12.7391 2.2953 13.1188 2.94711C13.4986 3.59891 13.6885 4.31023 13.6885 5.08105H16.4771C16.8851 5.08105 17.2309 5.22558 17.5143 5.51465C17.7977 5.80371 17.9394 6.15795 17.9394 6.57737C17.9394 6.66806 17.9337 6.75307 17.9224 6.83242L16.341 15.9803C16.2503 16.5131 16.001 16.9552 15.5929 17.3066C15.1848 17.658 14.7144 17.8337 14.1816 17.8337H4.69357C4.1608 17.8337 3.69036 17.658 3.28228 17.3066C2.87419 16.9552 2.62481 16.5131 2.53412 15.9803L0.952787 6.84943C0.884772 6.44134 0.966956 6.06726 1.19934 5.72719C1.43172 5.38712 1.74629 5.17741 2.14304 5.09806C2.22239 5.08672 2.30741 5.08105 2.39809 5.08105H12.3112C12.3112 4.57095 12.1837 4.09768 11.9286 3.66126C11.6735 3.22483 11.3278 2.87909 10.8914 2.62404C10.455 2.36898 9.98169 2.24146 9.47158 2.24146ZM16.4771 6.49235H2.39809C2.38676 6.49235 2.36975 6.51502 2.34708 6.56037V6.59437L3.92841 15.7423C3.96242 15.9237 4.04177 16.0767 4.16646 16.2014C4.29116 16.3261 4.43852 16.3941 4.60856 16.4054L4.69357 16.4224H14.1816C14.3516 16.4224 14.5075 16.3686 14.6492 16.2609C14.7909 16.1532 14.8844 16.0087 14.9297 15.8273L16.5281 6.57737C16.5281 6.53203 16.5167 6.50936 16.4941 6.50936L16.4771 6.49235Z" fill="black"/>
</g>
<defs>
<clipPath id="clip0_21_11617">
<rect width="17.0036" height="17.0036" fill="white" transform="matrix(1 0 0 -1 0.783203 17.8337)"/>
</clipPath>
</defs>
</svg>
