<svg xmlns="http://www.w3.org/2000/svg" xmlns:xlink="http://www.w3.org/1999/xlink" xml:space="preserve" version="1.1" style="shape-rendering:geometricPrecision;text-rendering:geometricPrecision;image-rendering:optimizeQuality;" viewBox="0 0 333 380" x="0px" y="0px" fill-rule="evenodd" clip-rule="evenodd"><defs><style type="text/css">
   
    .fil0 {fill:black}
   
  </style></defs><g><path class="fil0" d="M115 222c-22,0 -41,18 -41,41 0,22 19,41 41,41 23,0 41,-19 41,-41 0,-23 -18,-41 -41,-41zm0 58c-9,0 -17,-8 -17,-17 0,-10 8,-18 17,-18 10,0 18,8 18,18 0,9 -8,17 -18,17z"/><path class="fil0" d="M246 222c-22,0 -41,18 -41,41 0,22 19,41 41,41 23,0 41,-19 41,-41 0,-23 -18,-41 -41,-41zm0 58c-9,0 -17,-8 -17,-17 0,-10 8,-18 17,-18 10,0 18,8 18,18 0,9 -8,17 -18,17z"/><path class="fil0" d="M321 62c-84,0 -169,0 -253,0l-11 -53c-1,-5 -6,-9 -12,-9l-33 0c-16,0 -16,23 0,23l24 0 37 171c1,5 6,9 11,9l208 0c5,0 10,-4 11,-9l30 -118c1,-7 -4,-14 -12,-14zm-15 23l-23 94 -189 0 -21 -94c78,0 156,0 233,0z"/></g><text x="0" y="319" fill="#000000" font-size="5px" font-weight="bold" font-family="'Helvetica Neue', Helvetica, Arial-Unicode, Arial, Sans-serif">Created by Iga</text><text x="0" y="324" fill="#000000" font-size="5px" font-weight="bold" font-family="'Helvetica Neue', Helvetica, Arial-Unicode, Arial, Sans-serif">from the Noun Project</text></svg>