<svg width="24" height="25" viewBox="0 0 24 25" fill="none" xmlns="http://www.w3.org/2000/svg">
<g id="Icon/email">
<path id="Union" fill-rule="evenodd" clip-rule="evenodd" d="M4.07577 6.69774C4.23201 6.18557 4.70828 5.81299 5.27156 5.81299H19.2716C19.8349 5.81299 20.3111 6.18557 20.4674 6.69774L12.2716 12.1616L4.07577 6.69774ZM2.5216 7.04925C2.52146 7.05725 2.52145 7.06525 2.52156 7.07324V17.063C2.52156 18.5818 3.75278 19.813 5.27156 19.813H19.2716C20.7903 19.813 22.0216 18.5818 22.0216 17.063V7.07322M20.5216 8.46438V17.063C20.5216 17.7533 19.9619 18.313 19.2716 18.313H5.27156C4.58121 18.313 4.02156 17.7533 4.02156 17.063V8.46438L11.8555 13.687C12.1075 13.855 12.4357 13.855 12.6876 13.687L20.5216 8.46438ZM22.0215 7.04928C22.0141 5.5368 20.7858 4.31299 19.2716 4.31299H5.27156C3.75736 4.31299 2.52899 5.53679 2.5216 7.04925" fill="black"/>
</g>
</svg>
