<svg width="26" height="14" viewBox="0 0 26 14" fill="none" xmlns="http://www.w3.org/2000/svg">
<g id="Group">
<g id="Group_2">
<path id="Vector" fill-rule="evenodd" clip-rule="evenodd" d="M0 0H25.65V1.07734H0V0ZM0 2.15469H25.65V3.23203H0V2.15469ZM0 4.30664H25.65V5.38672H0V4.30664ZM0 6.46133H25.65V7.53867H0V6.46133ZM0 8.61602H25.65V9.69336H0V8.61602ZM0 10.768H25.65V11.8453H0V10.768ZM0 12.9227H25.65V14H0V12.9227Z" fill="#BD3D44"/>
<path id="Vector_2" fill-rule="evenodd" clip-rule="evenodd" d="M0 1.07732H25.65V2.15467H0V1.07732ZM0 3.23201H25.65V4.30662H0V3.23201ZM0 5.38396H25.65V6.46131H0V5.38396ZM0 7.53865H25.65V8.616H0V7.53865ZM0 9.69334H25.65V10.7707H0V9.69334ZM0 11.8453H25.65V12.9226H0V11.8453Z" fill="white"/>
</g>
<path id="Vector_3" fill-rule="evenodd" clip-rule="evenodd" d="M0 0H10.2595V7.53867H0V0Z" fill="#192F5D"/>
<path id="Vector_4" fill-rule="evenodd" clip-rule="evenodd" d="M0.856445 0.322655L0.951367 0.620702H1.25195L1.00938 0.803905L1.10166 1.10469L0.856445 0.918748L0.613867 1.10195L0.706152 0.803905L0.460938 0.620702H0.766797L0.856445 0.322655ZM2.56768 0.322655L2.65996 0.620702H2.96318L2.71797 0.803905L2.81025 1.10469L2.56768 0.918748L2.32246 1.10195L2.41475 0.803905L2.17217 0.620702H2.47275L2.56768 0.322655ZM4.27627 0.322655L4.37119 0.620702H4.66914L4.42656 0.803905L4.51885 1.10469L4.27363 0.918748L4.03105 1.10195L4.12334 0.803905L3.87813 0.620702H4.18135L4.27627 0.322655ZM5.9875 0.322655L6.07979 0.620702H6.38301L6.13779 0.803905L6.23272 1.10469L5.9875 0.918748L5.74229 1.10195L5.83721 0.803905L5.59199 0.620702H5.89258L5.9875 0.322655ZM7.69609 0.322655L7.79102 0.620702H8.0916L7.84902 0.803905L7.94131 1.10469L7.69609 0.918748L7.45352 1.10195L7.5458 0.803905L7.30322 0.620702H7.60381L7.69609 0.322655ZM9.40732 0.322655L9.49961 0.620702H9.80283L9.55762 0.803905L9.65254 1.10469L9.40732 0.918748L9.16211 1.10195L9.25703 0.803905L9.01182 0.620702H9.31504L9.40732 0.322655ZM1.71338 1.07734L1.80566 1.37539H2.10889L1.86367 1.55859L1.95332 1.85664L1.71602 1.67344L1.4708 1.85664L1.55781 1.55859L1.32051 1.37539H1.62109L1.71338 1.07734ZM3.42197 1.07734L3.51689 1.37539H3.81748L3.57227 1.55859L3.66719 1.85664L3.42197 1.67344L3.17676 1.85664L3.27168 1.55859L3.02646 1.37539H3.32969L3.42197 1.07734ZM5.1332 1.07734L5.22549 1.37539H5.52871L5.2835 1.55859L5.37578 1.85664L5.1332 1.67344L4.88799 1.85664L4.98027 1.55859L4.7377 1.37539H5.03828L5.1332 1.07734ZM6.8418 1.07734L6.93672 1.37539H7.2373L6.99209 1.55859L7.08701 1.85664L6.8418 1.67344L6.59922 1.85664L6.6915 1.55859L6.44629 1.37539H6.75215L6.8418 1.07734ZM8.55303 1.07734L8.64531 1.37539H8.94853L8.70332 1.55859L8.79561 1.85664L8.55303 1.67344L8.30781 1.85664L8.4001 1.55859L8.15752 1.37539H8.45811L8.55303 1.07734ZM0.856445 1.8293L0.951367 2.13281H1.25195L1.00938 2.31601L1.10166 2.61406L0.856445 2.42812L0.613867 2.61406L0.706152 2.31328L0.460938 2.13008H0.766797L0.856445 1.8293ZM2.56768 1.8293L2.65996 2.13008H2.96318L2.71797 2.31328L2.81025 2.61133L2.56768 2.42539L2.32246 2.61133L2.41475 2.31055L2.17217 2.12734H2.47275L2.56768 1.8293ZM4.27627 1.8293L4.37119 2.13008H4.66914L4.42656 2.31328L4.51885 2.61133L4.27363 2.42539L4.03105 2.61133L4.12334 2.31055L3.87813 2.12734H4.18135L4.27627 1.8293ZM5.9875 1.8293L6.07979 2.13008H6.38301L6.13779 2.31328L6.23272 2.61133L5.9875 2.42539L5.74229 2.61133L5.83721 2.31055L5.59199 2.12734H5.89258L5.9875 1.8293ZM7.69609 1.8293L7.79102 2.13008H8.0916L7.84902 2.31328L7.94131 2.61133L7.69609 2.42539L7.45352 2.61133L7.5458 2.31055L7.30322 2.12734H7.60381L7.69609 1.8293ZM9.40732 1.8293L9.49961 2.13008H9.80283L9.55762 2.31328L9.65254 2.61133L9.40732 2.42539L9.16211 2.61133L9.25703 2.31055L9.01182 2.12734H9.31504L9.40732 1.8293ZM1.71338 2.58398L1.80566 2.88203H2.10889L1.86367 3.06523L1.95596 3.36601L1.71338 3.18008L1.46816 3.36328L1.56045 3.06523L1.31787 2.88203H1.61846L1.71338 2.58398ZM3.42197 2.58398L3.51689 2.88203H3.81748L3.57227 3.06523L3.66719 3.36601L3.42197 3.18008L3.17676 3.36328L3.27168 3.06523L3.02646 2.88203H3.32969L3.42197 2.58398ZM5.1332 2.58398L5.22549 2.88203H5.52871L5.2835 3.06523L5.37578 3.36601L5.1332 3.18008L4.88799 3.36328L4.98027 3.06523L4.7377 2.88203H5.03828L5.1332 2.58398ZM6.8418 2.58398L6.93672 2.88203H7.2373L6.99473 3.06523L7.08701 3.36601L6.8418 3.18008L6.59922 3.36328L6.6915 3.06523L6.44629 2.88203H6.75215L6.8418 2.58398ZM8.55303 2.58398L8.64531 2.88203H8.94853L8.70332 3.06523L8.79561 3.36601L8.55303 3.18008L8.30781 3.36328L8.4001 3.06523L8.15752 2.88203H8.45811L8.55303 2.58398ZM0.856445 3.33867L0.951367 3.63672H1.25195L1.00938 3.81992L1.10166 4.1207L0.856445 3.93476L0.613867 4.11797L0.706152 3.81992L0.460938 3.63672H0.766797L0.856445 3.33867ZM2.56768 3.33867L2.65996 3.63672H2.96318L2.71797 3.81992L2.81025 4.11797L2.56768 3.93476L2.32246 4.11797L2.41475 3.81992L2.17217 3.63672H2.47275L2.56768 3.33867ZM4.27627 3.33867L4.37119 3.63672H4.66914L4.42656 3.81992L4.51885 4.1207L4.27363 3.93476L4.03105 4.11797L4.12334 3.81992L3.87813 3.63672H4.18135L4.27627 3.33867ZM5.9875 3.33867L6.07979 3.63672H6.38301L6.13779 3.81992L6.23272 4.1207L5.9875 3.93476L5.74229 4.11797L5.83721 3.81992L5.59199 3.63672H5.89258L5.9875 3.33867ZM7.69609 3.33867L7.79102 3.63672H8.0916L7.84902 3.81992L7.94131 4.1207L7.69609 3.93476L7.45352 4.11797L7.5458 3.81992L7.30322 3.63672H7.60381L7.69609 3.33867ZM9.40732 3.33867L9.49961 3.63672H9.80283L9.55762 3.81992L9.65254 4.1207L9.40732 3.93476L9.16211 4.11797L9.25703 3.81992L9.01182 3.63672H9.31504L9.40732 3.33867ZM1.71338 4.09336L1.80566 4.3914H2.10889L1.86367 4.57461L1.95596 4.87265L1.71338 4.68672L1.46816 4.87265L1.56045 4.57187L1.31787 4.38867H1.61846L1.71338 4.09336ZM3.42197 4.09336L3.51689 4.3914H3.81748L3.57227 4.57461L3.66719 4.87265L3.42197 4.68672L3.17676 4.87265L3.27168 4.57187L3.02646 4.38867H3.32969L3.42197 4.09336ZM5.1332 4.09336L5.22549 4.3914H5.52871L5.2835 4.57461L5.37578 4.87265L5.1332 4.68672L4.88799 4.87265L4.98027 4.57187L4.7377 4.38867H5.03828L5.1332 4.09336ZM6.8418 4.09336L6.93672 4.3914H7.2373L6.99473 4.57461L7.08701 4.87265L6.8418 4.68672L6.59922 4.87265L6.6915 4.57187L6.44629 4.38867H6.75215L6.8418 4.09336ZM8.55303 4.09336L8.64531 4.3914H8.94853L8.70332 4.57461L8.79561 4.87265L8.55303 4.68672L8.30781 4.87265L8.4001 4.57187L8.15752 4.38867H8.45811L8.55303 4.09336ZM0.856445 4.84531L0.951367 5.14609H1.25195L1.00938 5.3293L1.10166 5.62461L0.856445 5.4414L0.613867 5.62461L0.706152 5.32656L0.460938 5.14336H0.766797L0.856445 4.84531ZM2.56768 4.84531L2.65996 5.14609H2.96318L2.71797 5.3293L2.81289 5.62461L2.56768 5.4414L2.32246 5.62461L2.41738 5.32656L2.17217 5.14336H2.47275L2.56768 4.84531ZM4.27627 4.84531L4.37119 5.14609H4.66914L4.42656 5.3293L4.51885 5.62461L4.27363 5.4414L4.03105 5.62461L4.12334 5.32656L3.87813 5.14336H4.18135L4.27627 4.84531ZM5.9875 4.84531L6.07979 5.14609H6.38301L6.13779 5.3293L6.23272 5.62461L5.9875 5.4414L5.74229 5.62461L5.83721 5.32656L5.59199 5.14336H5.89258L5.9875 4.84531ZM7.69609 4.84531L7.79102 5.14609H8.0916L7.84902 5.3293L7.94131 5.62461L7.69609 5.4414L7.45352 5.62461L7.5458 5.32656L7.30322 5.14336H7.60381L7.69609 4.84531ZM9.40732 4.84531L9.49961 5.14609H9.80283L9.55762 5.3293L9.65254 5.62461L9.40732 5.4414L9.16211 5.62461L9.25703 5.32656L9.01182 5.14336H9.31504L9.40732 4.84531ZM1.71338 5.6L1.80566 5.89805H2.10889L1.86367 6.08125L1.95596 6.38203L1.71338 6.19609L1.46816 6.3793L1.56045 6.08125L1.31787 5.89805H1.61846L1.71338 5.6ZM3.42197 5.6L3.51689 5.89805H3.81748L3.57227 6.08125L3.66719 6.38203L3.42197 6.19609L3.17676 6.3793L3.27168 6.08125L3.02646 5.89805H3.32969L3.42197 5.6ZM5.1332 5.6L5.22549 5.89805H5.52871L5.2835 6.08125L5.37578 6.38203L5.1332 6.19609L4.88799 6.3793L4.98027 6.08125L4.7377 5.89805H5.03828L5.1332 5.6ZM6.8418 5.6L6.93672 5.89805H7.2373L6.99473 6.08125L7.08701 6.38203L6.8418 6.19609L6.59922 6.3793L6.6915 6.08125L6.44629 5.89805H6.75215L6.8418 5.6ZM8.55303 5.6L8.64531 5.89805H8.94853L8.70332 6.08125L8.79561 6.38203L8.55303 6.19609L8.30781 6.3793L8.4001 6.08125L8.15752 5.89805H8.45811L8.55303 5.6ZM0.856445 6.35469L0.951367 6.65273H1.25195L1.00938 6.83594L1.10166 7.13398L0.856445 6.95078L0.613867 7.13398L0.706152 6.8332L0.460938 6.65H0.766797L0.856445 6.35469ZM2.56768 6.35469L2.65996 6.65273H2.96318L2.71797 6.83594L2.81289 7.13398L2.56768 6.95078L2.32246 7.13398L2.41738 6.8332L2.17217 6.65H2.47275L2.56768 6.35469ZM4.27627 6.35469L4.37119 6.65273H4.66914L4.43184 6.83594L4.52412 7.13398L4.27891 6.95078L4.03633 7.13398L4.12861 6.8332L3.8834 6.65H4.18662L4.27627 6.35469ZM5.9875 6.35469L6.07979 6.65273H6.38301L6.13779 6.83594L6.23272 7.13398L5.9875 6.95078L5.74229 7.13398L5.83721 6.8332L5.59199 6.65H5.89258L5.9875 6.35469ZM7.69609 6.35469L7.79102 6.65273H8.0916L7.84902 6.83594L7.94131 7.13398L7.69609 6.95078L7.45352 7.13398L7.5458 6.8332L7.30322 6.65H7.60381L7.69609 6.35469ZM9.40732 6.35469L9.49961 6.65273H9.80283L9.55762 6.83594L9.65254 7.13398L9.40732 6.95078L9.16211 7.13398L9.25703 6.8332L9.01182 6.65H9.31504L9.40732 6.35469Z" fill="white"/>
</g>
</svg>
