<svg width="28" height="28" viewBox="0 0 28 28" fill="none" xmlns="http://www.w3.org/2000/svg">
<g id="Icon/Add">
<path id="Union" fill-rule="evenodd" clip-rule="evenodd" d="M14.7487 5.83337C14.7487 5.41916 14.4129 5.08337 13.9987 5.08337C13.5845 5.08337 13.2487 5.41916 13.2487 5.83337V13.25H5.83203C5.41782 13.25 5.08203 13.5858 5.08203 14C5.08203 14.4143 5.41782 14.75 5.83203 14.75H13.2487V22.1667C13.2487 22.5809 13.5845 22.9167 13.9987 22.9167C14.4129 22.9167 14.7487 22.5809 14.7487 22.1667V14.75H22.1654C22.5796 14.75 22.9154 14.4143 22.9154 14C22.9154 13.5858 22.5796 13.25 22.1654 13.25H14.7487V5.83337Z" fill="white"/>
</g>
</svg>
