<svg width="24" height="24" viewBox="0 0 24 24" fill="none" xmlns="http://www.w3.org/2000/svg">
<g id="Icon/search">
<path id="Union" fill-rule="evenodd" clip-rule="evenodd" d="M4.9668 10.2124C4.9668 7.37215 7.26929 5.06966 10.1096 5.06966C12.9498 5.06966 15.2523 7.37215 15.2523 10.2124C15.2523 13.0527 12.9498 15.3552 10.1096 15.3552C7.26929 15.3552 4.9668 13.0527 4.9668 10.2124ZM10.1096 3.56966C6.44086 3.56966 3.4668 6.54372 3.4668 10.2124C3.4668 13.8811 6.44086 16.8552 10.1096 16.8552C11.6737 16.8552 13.1115 16.3146 14.2465 15.41L18.8393 20.0028C19.1322 20.2957 19.607 20.2957 19.8999 20.0028C20.1928 19.7099 20.1928 19.235 19.8999 18.9421L15.3072 14.3494C16.2117 13.2144 16.7523 11.7765 16.7523 10.2124C16.7523 6.54372 13.7782 3.56966 10.1096 3.56966Z" fill="#FAFAFB"/>
</g>
</svg>
