<svg width="29" height="29" viewBox="0 0 29 29" fill="none" xmlns="http://www.w3.org/2000/svg">
<g id="Icon/user">
<path id="Union" fill-rule="evenodd" clip-rule="evenodd" d="M10.1572 9.83334C10.1572 7.70208 11.8849 5.97436 14.0161 5.97436C16.1474 5.97436 17.8751 7.70208 17.8751 9.83334C17.8751 11.9646 16.1474 13.6923 14.0161 13.6923C11.8849 13.6923 10.1572 11.9646 10.1572 9.83334ZM14.0161 4.35898C10.9927 4.35898 8.54177 6.80993 8.54177 9.83334C8.54177 12.8567 10.9927 15.3077 14.0161 15.3077C17.0395 15.3077 19.4905 12.8567 19.4905 9.83334C19.4905 6.80993 17.0395 4.35898 14.0161 4.35898ZM8.95268 19.8167C9.67638 19.093 10.6579 18.6864 11.6814 18.6864H16.3481C17.3715 18.6864 18.3531 19.093 19.0768 19.8167C19.8005 20.5404 20.207 21.5219 20.207 22.5454V24.8787C20.207 25.3248 20.5686 25.6864 21.0147 25.6864C21.4608 25.6864 21.8224 25.3248 21.8224 24.8787V22.5454C21.8224 21.0935 21.2457 19.7011 20.219 18.6744C19.1924 17.6478 17.7999 17.071 16.3481 17.071H11.6814C10.2295 17.071 8.83707 17.6478 7.81043 18.6744C6.78379 19.7011 6.20703 21.0935 6.20703 22.5454V24.8787C6.20703 25.3248 6.56865 25.6864 7.01472 25.6864C7.4608 25.6864 7.82242 25.3248 7.82242 24.8787V22.5454C7.82242 21.5219 8.22899 20.5404 8.95268 19.8167Z" fill="white"/>
</g>
</svg>
